<svg xmlns="http://www.w3.org/2000/svg" xmlns:xlink="http://www.w3.org/1999/xlink" width="16" height="16" viewBox="0 0 16 16">
  <defs>
    <clipPath id="clip-error">
      <rect width="16" height="16"/>
    </clipPath>
  </defs>
  <g id="error" clip-path="url(#clip-error)">
    <path id="Вычитание_7" data-name="Вычитание 7" d="M2885.77-3093.846c-.03,0-.059,0-.087,0l-6.682,0h-6.77a1.232,1.232,0,0,1-1.23-1.231,1.229,1.229,0,0,1,.191-.658l6.675-11.514A1.228,1.228,0,0,1,2879-3108a1.226,1.226,0,0,1,1.135.754l6.675,11.511a1.223,1.223,0,0,1,.191.657A1.232,1.232,0,0,1,2885.77-3093.846Zm-6.768-3.809a1.114,1.114,0,0,0-.34.049.881.881,0,0,0-.706.929c0,.6.4.961,1.075.961a.936.936,0,0,0,1.069-.961.906.906,0,0,0-.9-.963A1.221,1.221,0,0,0,2879-3097.655Zm-.914-6.268.163,5.26h1.644l.162-5.26Z" transform="translate(-2871 3108.602)" fill="#cc0500"/>
  </g>
</svg>
