<svg xmlns="http://www.w3.org/2000/svg" xmlns:xlink="http://www.w3.org/1999/xlink" width="38" height="38" viewBox="0 0 38 38">
  <defs>
    <clipPath id="clip-NetworkSettings">
      <rect width="38" height="38"/>
    </clipPath>
  </defs>
  <g id="NetworkSettings" clip-path="url(#clip-NetworkSettings)">
    <g id="Сгруппировать_112" data-name="Сгруппировать 112" transform="translate(-3.175)">
      <path id="Вычитание_4" data-name="Вычитание 4" d="M3115.495-3072.715h0v-3.533a12.6,12.6,0,0,0,1.056-2.131,24.685,24.685,0,0,0,1.331-5h-2.387v-2.071h2.666a41.7,41.7,0,0,0,.222-4.341,41.127,41.127,0,0,0-.221-4.3h-8.916a41.679,41.679,0,0,0-.218,4.3c0,.672.016,1.345.047,2H3107c-.031-.668-.045-1.341-.045-2,0-1.456.072-2.9.212-4.3h-8.32a15.169,15.169,0,0,0-.625,4.3,15.366,15.366,0,0,0,.131,2h-2.087a17.5,17.5,0,0,1-.115-2,17.1,17.1,0,0,1,5.04-12.168,17.1,17.1,0,0,1,12.168-5.04l.248,0,.1,0c.077,0,.15,0,.222.009a17.113,17.113,0,0,1,11.786,5.219,17.12,17.12,0,0,1,4.855,11.98,17.22,17.22,0,0,1-15.073,17.077Zm4.476-10.666h0a22.6,22.6,0,0,1-2.71,8.218,15.1,15.1,0,0,0,9.816-8.218Zm.272-10.714c.141,1.4.212,2.846.212,4.3a43.028,43.028,0,0,1-.217,4.341h7.628a15.148,15.148,0,0,0,.632-4.341,15.175,15.175,0,0,0-.62-4.3Zm-2.981-10.327h0a22.661,22.661,0,0,1,2.715,8.256h7.118a15.094,15.094,0,0,0-9.833-8.256Zm-3.612-.5c-.686.063-1.814,1.239-2.79,3.722a24.672,24.672,0,0,0-1.337,5.038h8.36a25.169,25.169,0,0,0-1.332-5.038c-.956-2.439-2.075-3.625-2.76-3.719l-.141,0Zm-3.378.315a15.219,15.219,0,0,0-10.639,8.446h7.8a22.113,22.113,0,0,1,2.839-8.446Z" transform="translate(-3090 3107)" fill="#297923"/>
      <g id="iconfinder_settings_430115" transform="translate(3.175 21.205)">
        <path id="Контур_13" data-name="Контур 13" d="M23.843,62.866H14.59a.4.4,0,1,1,0-.81h9.253a.4.4,0,0,1,0,.81Z" transform="translate(-14.185 -54.332)" fill="#297923" stroke="#297923" stroke-width="0.5"/>
        <path id="Контур_14" data-name="Контур 14" d="M90.969,62.866H86.06a.4.4,0,1,1,0-.81h4.909a.4.4,0,0,1,0,.81Z" transform="translate(-71.188 -54.332)" fill="#297923" stroke="#297923" stroke-width="0.5"/>
        <path id="Контур_15" data-name="Контур 15" d="M21.132,93.419H14.59a.4.4,0,0,1,0-.81h6.542a.4.4,0,0,1,0,.81Z" transform="translate(-14.185 -78.7)" fill="#297923" stroke="#297923" stroke-width="0.5"/>
        <path id="Контур_16" data-name="Контур 16" d="M80.7,93.419H73.179a.4.4,0,0,1,0-.81H80.7a.4.4,0,0,1,0,.81Z" transform="translate(-60.914 -78.7)" fill="#297923" stroke="#297923" stroke-width="0.5"/>
        <path id="Контур_17" data-name="Контур 17" d="M18.4,32.312H14.59a.4.4,0,1,1,0-.81H18.4a.4.4,0,1,1,0,.81Z" transform="translate(-14.185 -29.963)" fill="#297923" stroke="#297923" stroke-width="0.5"/>
        <path id="Контур_18" data-name="Контур 18" d="M69.531,32.312H59.181a.4.4,0,0,1,0-.81h10.35a.4.4,0,0,1,0,.81Z" transform="translate(-49.75 -29.963)" fill="#297923" stroke="#297923" stroke-width="0.5"/>
        <path id="Контур_19" data-name="Контур 19" d="M34.956,27.785A1.944,1.944,0,1,1,36.9,25.841,1.946,1.946,0,0,1,34.956,27.785Zm0-3.078a1.134,1.134,0,1,0,1.134,1.134A1.136,1.136,0,0,0,34.956,24.707Z" transform="translate(-29.201 -23.897)" fill="#297923" stroke="#297923" stroke-width="0.5"/>
        <path id="Контур_20" data-name="Контур 20" d="M48.446,88.894A1.944,1.944,0,1,1,50.39,86.95,1.947,1.947,0,0,1,48.446,88.894Zm0-3.079a1.135,1.135,0,1,0,1.135,1.134A1.136,1.136,0,0,0,48.446,85.816Z" transform="translate(-39.96 -72.636)" fill="#297923" stroke="#297923" stroke-width="0.5"/>
        <path id="Контур_21" data-name="Контур 21" d="M61.839,58.34A1.944,1.944,0,1,1,63.782,56.4,1.947,1.947,0,0,1,61.839,58.34Zm0-3.079A1.135,1.135,0,1,0,62.973,56.4,1.136,1.136,0,0,0,61.839,55.262Z" transform="translate(-50.641 -48.267)" fill="#297923" stroke="#297923" stroke-width="0.5"/>
      </g>
    </g>
  </g>
</svg>
