<svg xmlns="http://www.w3.org/2000/svg" xmlns:xlink="http://www.w3.org/1999/xlink" width="18" height="18" viewBox="0 0 18 18">
  <defs>
    <clipPath id="clip-oculus-serverconnect-no">
      <rect width="18" height="18"/>
    </clipPath>
  </defs>
  <g id="oculus-serverconnect-no" clip-path="url(#clip-oculus-serverconnect-no)">
    <path id="Вычитание_11" data-name="Вычитание 11" d="M3036.165-3121a.348.348,0,0,1-.045,0c-.041,0-.08,0-.121,0a8.01,8.01,0,0,1-8-8,8.009,8.009,0,0,1,8-8h.166c.037,0,.068,0,.1,0a7.954,7.954,0,0,1,5.479,2.426A7.959,7.959,0,0,1,3044-3129a8.044,8.044,0,0,1-.2,1.8,4.319,4.319,0,0,0-.822-.864,7.133,7.133,0,0,0,.062-.934,7.038,7.038,0,0,0-.285-1.989h-3.708c.062.654.093,1.323.093,1.989,0,.052,0,.1,0,.154v.005a4.272,4.272,0,0,0-.918.377c0-.159.007-.334.007-.537,0-.681-.032-1.35-.1-1.989H3034.2c-.063.637-.1,1.306-.1,1.989s.033,1.36.1,2.009h2.457a4.278,4.278,0,0,0-.463,1h-1.864a12.211,12.211,0,0,0,.579,2.3c.429,1.152.925,1.7,1.227,1.73h.065a.943.943,0,0,0,.5-.376,4.307,4.307,0,0,0,1.094,1.139,8.031,8.031,0,0,1-1.534.2h-.011C3036.223-3121,3036.194-3121,3036.165-3121Zm-6.529-4.993h0a7.059,7.059,0,0,0,5.032,3.9,10.558,10.558,0,0,1-1.257-3.9Zm-.386-5h0a7.063,7.063,0,0,0-.287,1.989,7.066,7.066,0,0,0,.291,2.009h4.035c-.063-.653-.094-1.329-.094-2.009s.031-1.339.093-1.989Zm8.466-4.837h0a10.812,10.812,0,0,1,1.206,3.836h3.45a7.013,7.013,0,0,0-4.656-3.836Zm-1.577-.208c-.3.029-.8.575-1.227,1.73a11.933,11.933,0,0,0-.585,2.315H3038a12.216,12.216,0,0,0-.582-2.315c-.421-1.134-.913-1.685-1.214-1.729h-.065Zm-1.472.124a7.065,7.065,0,0,0-5.037,3.92h3.778a10.577,10.577,0,0,1,1.259-3.92Z" transform="translate(-3027 3138)" stroke="#000" stroke-width="0.3"/>
    <path id="cancel" d="M2.825,0A2.825,2.825,0,1,0,5.649,2.825,2.828,2.828,0,0,0,2.825,0Zm0,.471a2.353,2.353,0,0,1,1.824,3.84L1.339,1A2.348,2.348,0,0,1,2.825.471ZM1,1.339l3.31,3.31A2.353,2.353,0,0,1,1,1.339Z" transform="translate(10.5 10.5)" stroke="#000" stroke-width="0.5"/>
  </g>
</svg>
