<svg xmlns="http://www.w3.org/2000/svg" xmlns:xlink="http://www.w3.org/1999/xlink" width="38" height="38" viewBox="0 0 38 38">
  <defs>
    <clipPath id="clip-Servicessettings">
      <rect width="38" height="38"/>
    </clipPath>
  </defs>
  <g id="Servicessettings" clip-path="url(#clip-Servicessettings)">
    <g id="settings" transform="translate(0 -0.002)">
      <path id="Контур_56" data-name="Контур 56" d="M35.306,14.73l-3.559-.713a14.054,14.054,0,0,0-.624-1.5l2.017-3.025a2.322,2.322,0,0,0-.29-2.931L30.614,4.328a2.322,2.322,0,0,0-2.931-.29L24.657,6.053a14.045,14.045,0,0,0-1.5-.623L22.444,1.87A2.322,2.322,0,0,0,20.166,0h-3.16A2.324,2.324,0,0,0,14.728,1.87l-.713,3.561a14.048,14.048,0,0,0-1.5.623L9.494,4.038a2.323,2.323,0,0,0-2.932.29L4.327,6.563a2.322,2.322,0,0,0-.29,2.931L6.053,12.52a13.928,13.928,0,0,0-.623,1.5l-3.562.712A2.324,2.324,0,0,0,0,17.008v3.16a2.323,2.323,0,0,0,1.868,2.278l3.561.714a14.048,14.048,0,0,0,.623,1.5L4.037,27.683a2.322,2.322,0,0,0,.29,2.931L6.563,32.85a2.322,2.322,0,0,0,2.931.29l3.025-2.017a13.7,13.7,0,0,0,1.5.624l.712,3.559a2.324,2.324,0,0,0,2.278,1.869h3.16a2.324,2.324,0,0,0,2.278-1.869l.714-3.559a14.054,14.054,0,0,0,1.5-.624l3.025,2.017a2.322,2.322,0,0,0,2.931-.29l2.235-2.235a2.322,2.322,0,0,0,.29-2.931l-2.017-3.025a13.817,13.817,0,0,0,.624-1.5l3.559-.712a2.323,2.323,0,0,0,1.869-2.278v-3.16A2.325,2.325,0,0,0,35.306,14.73ZM31.29,20.882A2.32,2.32,0,0,0,29.552,22.4a11.8,11.8,0,0,1-.519,1.248,2.319,2.319,0,0,0,.157,2.3l2.017,3.025-2.235,2.235-3.025-2.017a2.325,2.325,0,0,0-2.3-.159,11.746,11.746,0,0,1-1.25.522,2.321,2.321,0,0,0-1.514,1.738l-.714,3.562h-3.16L16.3,31.292a2.32,2.32,0,0,0-1.515-1.738,11.815,11.815,0,0,1-1.249-.519,2.318,2.318,0,0,0-2.3.157L8.205,31.208,5.97,28.973l2.016-3.025a2.327,2.327,0,0,0,.159-2.3,11.74,11.74,0,0,1-.52-1.25,2.323,2.323,0,0,0-1.738-1.514l-3.561-.714,0-3.161L5.885,16.3a2.322,2.322,0,0,0,1.738-1.515,11.576,11.576,0,0,1,.519-1.249,2.317,2.317,0,0,0-.158-2.3L5.97,8.206,8.2,5.971l3.025,2.016a2.325,2.325,0,0,0,2.3.159,11.721,11.721,0,0,1,1.249-.52,2.322,2.322,0,0,0,1.515-1.738l.713-3.561h3.16l.712,3.562a2.322,2.322,0,0,0,1.516,1.738,11.557,11.557,0,0,1,1.248.519,2.325,2.325,0,0,0,2.3-.158L28.97,5.971,31.2,8.206l-2.017,3.025a2.33,2.33,0,0,0-.159,2.3,11.728,11.728,0,0,1,.522,1.249A2.32,2.32,0,0,0,31.289,16.3l3.559.713,0,3.16Z" transform="translate(0 0)" fill="#297923"/>
      <path id="Контур_57" data-name="Контур 57" d="M17.132,9a8.132,8.132,0,1,0,8.132,8.132A8.133,8.133,0,0,0,17.132,9Zm0,15.249a7.116,7.116,0,1,1,7.116-7.116A7.117,7.117,0,0,1,17.132,24.25Z" transform="translate(1.455 1.455)" fill="#297923"/>
      <path id="Контур_58" data-name="Контур 58" d="M19.582,12a7.582,7.582,0,1,0,7.582,7.582A7.58,7.58,0,0,0,19.582,12Zm0,13.271a5.687,5.687,0,1,1,5.687-5.687A5.689,5.689,0,0,1,19.582,25.272Z" transform="translate(-0.995 -0.995)" fill="#297923"/>
    </g>
  </g>
</svg>
