<svg xmlns="http://www.w3.org/2000/svg" xmlns:xlink="http://www.w3.org/1999/xlink" width="15" height="20" viewBox="0 0 15 20">
  <defs>
    <clipPath id="clip-vrcontrollerright">
      <rect width="15" height="20"/>
    </clipPath>
  </defs>
  <g id="vrcontrollerright" clip-path="url(#clip-vrcontrollerright)">
    <g id="Сгруппировать_34" data-name="Сгруппировать 34" transform="translate(-521.201 -751.152)">
      <path id="Исключение_1" data-name="Исключение 1" d="M6.9,15.286A6.8,6.8,0,0,1,3.058,14.11,7.607,7.607,0,0,1,1.4,3.572,7.818,7.818,0,0,1,7.857,0,6.8,6.8,0,0,1,11.7,1.176a7.607,7.607,0,0,1,1.659,10.538A7.818,7.818,0,0,1,6.9,15.286ZM7.853,2.08A5.764,5.764,0,0,0,3.108,4.735a5.52,5.52,0,0,0,1.1,7.651,4.765,4.765,0,0,0,2.7.822,5.764,5.764,0,0,0,4.745-2.656,5.52,5.52,0,0,0-1.1-7.651A4.767,4.767,0,0,0,7.853,2.08Z" transform="translate(521.447 751.152)"/>
      <path id="Контур_5" data-name="Контур 5" d="M-1636.069,3837.04c-1,1.566-.265,2.174,2.636,4.957s3.785,4.456,5.729,3.068.7-4.72-1.217-6.765S-1635.072,3835.474-1636.069,3837.04Z" transform="translate(2160.502 -3074.411)"/>
      <g id="Сгруппировать_22" data-name="Сгруппировать 22" transform="translate(524.133 757.302)">
        <circle id="Эллипс_4" data-name="Эллипс 4" cx="1.5" cy="1.5" r="1.5" transform="translate(3)"/>
        <circle id="Эллипс_5" data-name="Эллипс 5" cx="1.5" cy="1.5" r="1.5" transform="translate(0 5)"/>
        <path id="Контур_6" data-name="Контур 6" d="M-1633.342,3914.418l3.229-5.458-2.648-1.259-3.084,5.1Z" transform="translate(1636 -3907)"/>
      </g>
    </g>
  </g>
</svg>
