<svg xmlns="http://www.w3.org/2000/svg" xmlns:xlink="http://www.w3.org/1999/xlink" width="15" height="20" viewBox="0 0 15 20">
  <defs>
    <clipPath id="clip-vrcontrollerleft">
      <rect width="15" height="20"/>
    </clipPath>
  </defs>
  <g id="vrcontrollerleft" clip-path="url(#clip-vrcontrollerleft)">
    <g id="Сгруппировать_35" data-name="Сгруппировать 35" transform="translate(0 0)">
      <path id="Исключение_1" data-name="Исключение 1" d="M7.857,15.286A7.817,7.817,0,0,1,1.4,11.714,7.608,7.608,0,0,1,3.057,1.176,6.8,6.8,0,0,1,6.9,0a7.818,7.818,0,0,1,6.458,3.572A7.607,7.607,0,0,1,11.7,14.11,6.8,6.8,0,0,1,7.857,15.286ZM6.905,2.079a4.765,4.765,0,0,0-2.7.822,5.52,5.52,0,0,0-1.1,7.651,5.765,5.765,0,0,0,4.745,2.656,4.765,4.765,0,0,0,2.7-.822,5.521,5.521,0,0,0,1.1-7.651A5.764,5.764,0,0,0,6.905,2.079Z" transform="translate(14.754 15.287) rotate(180)"/>
      <path id="Контур_5" data-name="Контур 5" d="M-1627.148,3837.04c1,1.566.265,2.174-2.636,4.957s-3.785,4.456-5.729,3.068-.7-4.72,1.217-6.765S-1628.145,3835.474-1627.148,3837.04Z" transform="translate(1638.915 -3825.563)"/>
      <g id="Сгруппировать_22" data-name="Сгруппировать 22" transform="translate(6.067 6.15)">
        <circle id="Эллипс_4" data-name="Эллипс 4" cx="1.5" cy="1.5" r="1.5"/>
        <circle id="Эллипс_5" data-name="Эллипс 5" cx="1.5" cy="1.5" r="1.5" transform="translate(3 5)"/>
        <path id="Контур_6" data-name="Контур 6" d="M-1632.615,3914.418l-3.229-5.458,2.648-1.259,3.084,5.1Z" transform="translate(1635.958 -3907)"/>
      </g>
    </g>
  </g>
</svg>
