<svg xmlns="http://www.w3.org/2000/svg" xmlns:xlink="http://www.w3.org/1999/xlink" width="24" height="14" viewBox="0 0 24 14">
  <defs>
    <clipPath id="clip-vrglasses">
      <rect width="24" height="14"/>
    </clipPath>
  </defs>
  <g id="vrglasses" clip-path="url(#clip-vrglasses)">
    <g id="vricon" transform="translate(-5.7 -5.5)">
      <path id="Контур_7" data-name="Контур 7" d="M27.96,5.5H7.427A1.723,1.723,0,0,0,5.7,7.227V17.773A1.723,1.723,0,0,0,7.427,19.5H13.68a1.23,1.23,0,0,0,1.167-.747l1.4-3.5a1.532,1.532,0,0,1,2.8.047l1.213,3.407a1.272,1.272,0,0,0,1.167.793h6.487a1.723,1.723,0,0,0,1.727-1.727V7.273A1.641,1.641,0,0,0,27.96,5.5ZM12.56,15.533a2.659,2.659,0,0,1-2.66-2.66,2.66,2.66,0,0,1,5.32,0A2.659,2.659,0,0,1,12.56,15.533Zm10.267,0a2.659,2.659,0,0,1-2.66-2.66,2.66,2.66,0,1,1,5.32,0A2.659,2.659,0,0,1,22.827,15.533Z" transform="translate(0 0)"/>
    </g>
  </g>
</svg>
